<svg xmlns="http://www.w3.org/2000/svg" width="1280" height="720" viewBox="0 0 1280 720" role="img" aria-labelledby="title description">
  <title id="title">WrapCheck screenshot placeholder</title>
  <description id="description">A dark production monitor layout showing two take viewers and a continuity review panel.</description>
  <rect width="1280" height="720" fill="#0a0c0e"/>
  <rect x="28" y="24" width="1224" height="56" rx="2" fill="#111418" stroke="#282d31"/>
  <text x="54" y="59" fill="#66d9d0" font-family="Arial" font-weight="700" font-size="20" letter-spacing="3">WRAPCHECK</text>
  <rect x="28" y="100" width="598" height="340" fill="#111418" stroke="#282d31"/>
  <rect x="654" y="100" width="598" height="340" fill="#111418" stroke="#282d31"/>
  <text x="48" y="128" fill="#899197" font-family="Arial" font-size="12">REFERENCE TAKE</text>
  <text x="674" y="128" fill="#899197" font-family="Arial" font-size="12">CURRENT TAKE</text>
  <rect x="44" y="144" width="566" height="274" fill="#080a0b" stroke="#66d9d0"/>
  <rect x="670" y="144" width="566" height="274" fill="#080a0b" stroke="#e7a94c"/>
  <text x="508" y="290" text-anchor="middle" fill="#555d62" font-family="Arial" font-size="13" letter-spacing="2">VIDEO EVIDENCE</text>
  <text x="1134" y="290" text-anchor="middle" fill="#555d62" font-family="Arial" font-size="13" letter-spacing="2">VIDEO EVIDENCE</text>
  <rect x="28" y="460" width="808" height="232" fill="#111418" stroke="#282d31"/>
  <rect x="856" y="460" width="396" height="232" fill="#111418" stroke="#282d31"/>
  <text x="50" y="492" fill="#899197" font-family="Arial" font-size="11" letter-spacing="2">CONTINUITY REVIEW</text>
  <text x="50" y="532" fill="#eef0eb" font-family="Georgia" font-size="25">5 differences require attention</text>
  <rect x="50" y="558" width="764" height="106" fill="#0d1012" stroke="#282d31"/>
  <text x="70" y="590" fill="#ef725f" font-family="Arial" font-size="11" font-weight="700">BLOCKING · WARDROBE</text>
  <text x="70" y="626" fill="#eef0eb" font-family="Arial" font-size="18">Mara's watch / wrist</text>
  <text x="878" y="492" fill="#899197" font-family="Arial" font-size="11" letter-spacing="2">WRAP RECOMMENDATION</text>
  <text x="878" y="540" fill="#eef0eb" font-family="Georgia" font-size="30">Review required</text>
  <rect x="878" y="620" width="350" height="42" fill="#66d9d0"/>
  <text x="1053" y="646" text-anchor="middle" fill="#08100e" font-family="Arial" font-size="12" font-weight="700">VIEW CONTINUITY REPORT</text>
</svg>
